<svg width="1381" height="418" viewBox="0 0 1381 418" fill="none" xmlns="http://www.w3.org/2000/svg">
<path d="M846.834 239.888H800.495C800.812 230.155 803.016 220.583 806.98 211.727C810.943 202.871 816.587 194.907 823.584 188.296C837.244 175.437 855.236 168.466 873.805 168.838C893.612 168.28 912.979 174.872 928.502 187.455C935.432 192.607 941.082 199.349 944.998 207.139C948.914 214.928 950.986 223.548 951.048 232.305C951.048 251.387 941.824 268.633 923.374 284.043C933.47 290.093 942.246 298.192 949.162 307.841C954.768 316.657 957.619 327.006 957.337 337.515C957.738 347.364 956.033 357.185 952.341 366.291C948.648 375.398 943.057 383.573 935.957 390.246C921.703 403.487 902.838 410.097 879.362 410.078C859.628 410.813 840.329 404.045 825.197 391.081C810.354 377.391 800.925 358.625 798.688 338.322H846.137C851.766 360.601 862.606 371.74 878.659 371.74C882.455 371.813 886.224 371.071 889.722 369.562C893.219 368.052 896.368 365.81 898.964 362.978C901.681 360.119 903.811 356.735 905.23 353.023C906.65 349.312 907.33 345.348 907.23 341.365C907.402 336.583 906.605 331.816 904.888 327.364C903.171 322.912 900.573 318.87 897.255 315.493C893.87 312.144 889.857 309.529 885.458 307.806C881.059 306.082 876.364 305.285 871.656 305.464H863.189V265.97H868.22C877.64 266.45 886.925 263.532 894.454 257.727C897.651 255.137 900.209 251.817 901.926 248.035C903.642 244.252 904.468 240.112 904.338 235.945C904.495 228.186 901.693 220.67 896.523 214.986C894.139 212.209 891.194 209.994 887.89 208.493C884.587 206.992 881.004 206.242 877.39 206.294C859.778 206.294 849.593 217.492 846.834 239.888ZM1051.76 172.875H1112.09L1055.43 251.828C1062.43 250.44 1069.53 249.703 1076.66 249.625C1086.26 249.543 1095.77 251.509 1104.58 255.399C1113.39 259.289 1121.31 265.016 1127.84 272.214C1134.76 279.252 1140.23 287.64 1143.93 296.881C1147.62 306.122 1149.46 316.027 1149.33 326.008C1149.61 337.318 1147.49 348.556 1143.12 358.95C1138.74 369.343 1132.22 378.647 1123.99 386.221C1106.45 402.379 1083.45 410.934 1059.85 410.078C1048.92 410.446 1038.03 408.564 1027.82 404.544C1017.62 400.524 1008.31 394.448 1000.45 386.677C992.709 378.954 986.626 369.667 982.591 359.408C978.555 349.15 976.656 338.145 977.014 327.094C977.241 308.651 981.219 290.458 988.693 273.669C995.685 256.892 1004.36 240.899 1014.57 225.944L1051.76 172.875ZM1097.04 325.722C1097.3 315.868 1093.74 306.308 1087.13 299.126C1084.06 295.665 1080.31 292.913 1076.11 291.057C1071.92 289.2 1067.38 288.281 1062.81 288.36C1057.9 288.253 1053.02 289.17 1048.47 291.054C1043.92 292.938 1039.79 295.75 1036.34 299.318C1032.83 302.783 1030.06 306.949 1028.2 311.556C1026.34 316.163 1025.43 321.113 1025.52 326.095C1025.43 331.02 1026.33 335.911 1028.18 340.461C1030.03 345.01 1032.78 349.119 1036.26 352.528C1039.74 356.061 1043.9 358.837 1048.46 360.687C1053.03 362.537 1057.92 363.424 1062.83 363.294C1067.39 363.317 1071.9 362.341 1076.06 360.432C1080.21 358.522 1083.92 355.723 1086.93 352.224C1093.58 345.09 1097.21 335.569 1097.03 325.722H1097.04ZM1247.87 169.574C1260.43 169.16 1272.9 171.847 1284.22 177.407C1295.54 182.968 1305.39 191.238 1312.91 201.515C1329.08 222.813 1337.16 251.271 1337.17 286.888C1337.17 328.506 1328.18 359.378 1310.21 379.504C1302.59 388.848 1293.06 396.388 1282.31 401.605C1271.55 406.821 1259.81 409.588 1247.9 409.716C1235.27 410.038 1222.74 407.284 1211.35 401.683C1199.96 396.081 1190.04 387.792 1182.4 377.5C1165.69 356.019 1157.34 327.776 1157.34 292.77C1157.34 255.56 1165.51 225.726 1181.86 203.268C1189.07 192.649 1198.74 184.016 1210.01 178.138C1221.27 172.26 1233.78 169.318 1246.43 169.574H1247.87ZM1289.03 291.304C1289.03 267.549 1285.32 248.883 1277.89 235.308C1270.46 221.732 1260.46 214.939 1247.89 214.927C1234.71 214.927 1224.35 221.721 1216.8 235.308C1209.26 248.895 1205.48 267.806 1205.48 292.04C1204.64 310.403 1208.61 328.664 1216.98 344.934C1224.65 358.151 1234.71 364.76 1247.16 364.76C1259.86 364.76 1270.01 358.151 1277.61 344.934C1285.21 331.717 1289.01 313.838 1289.03 291.298L1289.03 291.304Z" fill="white"/>
<path d="M92.2038 192.211C102.09 192.176 111.866 194.327 120.862 198.515C129.858 202.704 137.861 208.831 144.322 216.476C158.734 232.5 166.476 253.626 165.909 275.381C166.52 297.245 158.778 318.494 144.322 334.625C137.842 342.225 129.828 348.302 120.831 352.436C111.835 356.57 102.068 358.665 92.2038 358.575C72.2603 358.575 56.9435 352.167 46.2534 339.351V417.182H0V196.621H46.2591V211.435C56.9492 198.619 72.2641 192.211 92.2038 192.211ZM56.4347 303.42C59.9517 306.875 64.1102 309.575 68.6649 311.361C73.2197 313.147 78.0784 313.982 82.9543 313.818C87.786 314.001 92.6034 313.174 97.1107 311.386C101.618 309.598 105.72 306.887 109.165 303.42C112.718 299.744 115.484 295.353 117.288 290.526C119.092 285.699 119.894 280.542 119.644 275.381C119.894 270.22 119.091 265.063 117.286 260.236C115.481 255.409 112.713 251.018 109.159 247.343C105.714 243.876 101.612 241.165 97.105 239.377C92.5977 237.589 87.7803 236.761 82.9485 236.945C78.0727 236.781 73.214 237.616 68.6592 239.402C64.1045 241.188 59.9459 243.888 56.429 247.343C52.9615 251.067 50.2717 255.473 48.5234 260.294C46.7751 265.114 46.0047 270.247 46.2591 275.381C46.0054 280.516 46.7767 285.649 48.526 290.47C50.2754 295.29 52.9662 299.696 56.4347 303.42V303.42ZM228.82 354.182H182.567V196.627H228.826L228.82 354.182ZM344.462 274.155L399.668 354.182H346.629L317.948 312.585L289.268 354.182H236.229L291.423 274.155L238.075 196.627H291.115L317.943 235.701L344.771 196.627H397.793L344.462 274.155ZM547.072 294.319H437.598C442.739 309.024 455.077 316.377 474.613 316.377C480.1 316.67 485.585 315.753 490.694 313.686C495.802 311.62 500.416 308.453 504.22 304.402L541.235 326.143C526.227 347.784 503.818 358.604 474.007 358.604C462.603 359.116 451.213 357.288 440.511 353.229C429.809 349.17 420.011 342.961 411.696 334.97C404.063 327.177 398.073 317.87 394.095 307.622C390.118 297.373 388.236 286.401 388.566 275.381C388.296 264.452 390.178 253.578 394.1 243.406C398.022 233.234 403.905 223.971 411.398 216.167C419.123 208.226 428.369 202.001 438.557 197.879C448.744 193.758 459.655 191.831 470.606 192.217C481.039 191.94 491.411 193.932 501.034 198.061C510.657 202.19 519.311 208.361 526.423 216.167C533.893 223.973 539.74 233.244 543.61 243.42C547.48 253.597 549.293 264.469 548.941 275.381C548.973 281.732 548.348 288.068 547.077 294.284L547.072 294.319ZM436.666 259.025H502.979C501.454 251.508 497.285 244.823 491.261 240.235C485.238 235.647 477.777 233.475 470.291 234.129C452.402 234.125 441.194 242.424 436.666 259.025ZM611.841 354.182H565.576V124.147H611.835L611.841 354.182ZM751.848 228.136L693.578 310.05H754.946V354.165H631.575V322.656L689.885 240.724H634.679V196.61H751.87L751.848 228.136Z" fill="white"/>
<path d="M297.527 0.0321121H256.013V42.4526H297.527V0.0321121Z" fill="#7AC943"/>
<path d="M266.382 53.0495H224.868V95.47H266.382V53.0495Z" fill="#FF3C3C"/>
<path d="M287.146 130.82H256.013V162.632H287.146V130.82Z" fill="#FF931E"/>
<path d="M231.79 130.82H169.519V183.842H231.79V130.82Z" fill="#1A61AF"/>
<path d="M979.004 366.326C925.108 366.326 877.048 357.791 840.016 341.646C801.617 324.904 777.298 300.756 769.701 271.818C766.244 258.136 765.981 243.816 768.934 230.011C772.276 214.591 778.162 199.864 786.341 186.463C797.057 168.817 810.003 152.693 824.843 138.505C841.969 121.986 860.663 107.253 880.649 94.5243C927.478 64.9388 978.85 43.627 1032.61 31.4837C1057.22 25.7914 1082.1 21.4256 1107.16 18.4046C1130.55 15.5661 1154.08 14.1124 1177.63 14.0521C1230.23 14.0521 1276.23 21.9848 1310.77 36.9914C1326.95 43.6511 1341.78 53.3253 1354.51 65.5211C1365.69 76.3685 1373.77 90.12 1377.88 105.302C1382.53 123.776 1381.97 143.218 1376.27 161.38C1373.86 156.66 1370.5 152.522 1366.4 149.248C1362.29 145.973 1357.55 143.639 1352.49 142.401C1347.42 141.163 1342.16 141.051 1337.05 142.073C1331.94 143.095 1327.11 145.226 1322.88 148.324C1325.95 134.894 1325.78 120.9 1322.36 107.556C1315.87 82.812 1295.96 62.5771 1264.78 49.0892C1235.14 36.2381 1195.61 29.4628 1150.45 29.4628C1108.15 29.814 1066.02 34.8845 1024.8 44.5855C930.762 66.3098 847.286 118.772 812.14 178.208C797.025 203.776 792.133 228.994 797.913 251.133C804.407 275.907 825.272 296.573 858.257 310.903C890.042 324.712 931.338 332.014 977.677 332.014C1021.63 331.769 1065.36 325.729 1107.8 314.04C1176.8 295.149 1236.78 263.108 1276.7 223.824C1288.82 212.157 1299.4 198.934 1308.19 184.487C1309.55 193.189 1313.91 201.107 1320.48 206.811C1327.06 212.515 1335.41 215.63 1344.04 215.594C1345.21 215.594 1346.4 215.536 1347.57 215.419C1340.64 224.346 1333.13 232.786 1325.08 240.683C1300.32 264.554 1272.42 284.782 1242.19 300.78C1206.33 320 1168.46 335.01 1129.3 345.525C1104.11 352.421 1078.5 357.649 1052.65 361.174C1028.24 364.543 1003.64 366.265 979.004 366.326V366.326Z" fill="white"/>
<path d="M846.845 239.888H800.488C800.806 230.155 803.01 220.583 806.973 211.727C810.937 202.871 816.58 194.907 823.578 188.296C837.237 175.437 855.229 168.466 873.799 168.838C893.606 168.28 912.972 174.872 928.495 187.455C935.425 192.607 941.076 199.349 944.992 207.139C948.907 214.928 950.98 223.548 951.042 232.305C951.042 251.387 941.817 268.633 923.368 284.043C933.451 290.097 942.215 298.196 949.121 307.841C953.522 314.705 956.214 322.564 956.964 330.734V332.533L939.294 333.058L904.423 326.831L903.788 324.793C902.181 321.293 899.959 318.125 897.231 315.447C893.846 312.097 889.834 309.482 885.434 307.759C881.035 306.035 876.34 305.239 871.632 305.417H863.183V265.94H868.213C877.633 266.42 886.918 263.503 894.447 257.698C897.644 255.107 900.203 251.788 901.919 248.006C903.635 244.223 904.462 240.083 904.331 235.915C904.487 228.165 901.689 220.656 896.528 214.974C894.144 212.197 891.198 209.982 887.895 208.481C884.592 206.981 881.009 206.23 877.394 206.282C859.776 206.29 849.592 217.492 846.845 239.888ZM1051.76 172.875H1112.09L1055.45 251.828C1062.45 250.44 1069.55 249.703 1076.68 249.625C1086.28 249.543 1095.79 251.509 1104.6 255.399C1113.41 259.289 1121.33 265.016 1127.85 272.214C1136.16 280.434 1142.29 290.666 1145.69 301.959C1144.4 306.386 1132.09 308.449 1114.44 313.297C1111.5 314.097 1107.81 315.704 1103 316.802L1097.77 319.097L1096.26 317.035L1076.48 321.709L1065.8 323.718L1038.66 327.842L1025.15 330.605L992.916 334.332L977.098 333.748V331.727C977.053 330.967 977.001 329.063 977.001 327.129C977.226 308.674 981.205 290.468 988.686 273.669C995.679 256.892 1004.35 240.899 1014.56 225.944L1051.76 172.875ZM1096.21 317.018C1096.21 316.936 1096.21 316.854 1095.95 315.686C1094.57 309.437 1091.51 303.704 1087.13 299.126C1084.06 295.665 1080.3 292.913 1076.11 291.057C1071.91 289.2 1067.38 288.281 1062.81 288.36C1057.9 288.253 1053.02 289.17 1048.46 291.054C1043.91 292.938 1039.78 295.75 1036.33 299.318C1032.82 302.783 1030.05 306.949 1028.19 311.556C1026.33 316.163 1025.42 321.113 1025.52 326.095C1025.52 327.427 1025.6 328.757 1025.76 330.079C1025.76 330.079 1034.13 328.572 1046.34 326.826C1047.45 326.668 1048.69 326.469 1051.1 326.119C1053.27 325.786 1057.06 325.167 1060.86 324.495L1075.05 321.989L1096.21 317.018ZM1247.88 169.574C1258.27 169.283 1268.62 171.097 1278.33 174.913C1288.04 178.728 1296.91 184.47 1304.43 191.807L1297.77 210.698L1273.48 228.339L1263.71 236.196L1251.85 245.747L1234.08 258.329L1221.94 266.507L1210.44 273.698L1190.1 287.437L1157.38 297.619C1157.38 297.619 1157.32 294.756 1157.32 292.764C1157.32 255.554 1165.5 225.72 1181.85 203.262C1189.06 192.639 1198.73 184.005 1210 178.127C1221.27 172.249 1233.79 169.311 1246.44 169.574H1247.88ZM1272.36 227.019C1269.48 223.196 1265.77 220.112 1261.52 218.012C1257.27 215.911 1252.6 214.853 1247.88 214.921C1234.7 214.921 1224.34 221.715 1216.8 235.302C1210.56 247.631 1206.94 261.167 1206.17 275.024V275.608L1210.44 273.669L1216.32 270.041L1222.98 265.847L1228.04 262.342L1237.6 255.8L1251.85 245.688L1262.79 236.85L1273.48 228.269L1272.36 227.019Z" fill="white"/>
<path d="M1344.01 208.603C1360.25 208.603 1373.42 195.15 1373.42 178.554C1373.42 161.959 1360.25 148.506 1344.01 148.506C1327.77 148.506 1314.6 161.959 1314.6 178.554C1314.6 195.15 1327.77 208.603 1344.01 208.603Z" fill="white"/>
<path d="M1344.01 202.764C1357.09 202.764 1367.7 191.926 1367.7 178.557C1367.7 165.188 1357.09 154.35 1344.01 154.35C1330.93 154.35 1320.32 165.188 1320.32 178.557C1320.32 191.926 1330.93 202.764 1344.01 202.764Z" stroke="white" stroke-width="14.3852"/>
</svg>
