<svg width="478" height="145" viewBox="0 0 478 145" fill="none" xmlns="http://www.w3.org/2000/svg">
<path d="M293.009 83.3362H277.008C277.117 79.9713 277.878 76.6621 279.247 73.6003C280.615 70.5385 282.564 67.7849 284.98 65.4993C289.697 61.0534 295.91 58.6432 302.322 58.7721C309.161 58.5792 315.848 60.8581 321.209 65.2085C323.602 66.9897 325.553 69.3207 326.905 72.0138C328.257 74.707 328.973 77.6872 328.994 80.7148C328.994 87.3121 325.809 93.2746 319.438 98.6022C322.924 100.694 325.955 103.494 328.343 106.83C330.278 109.878 331.263 113.456 331.165 117.089C331.304 120.495 330.715 123.89 329.44 127.038C328.165 130.187 326.235 133.013 323.783 135.32C318.861 139.898 312.347 142.183 304.24 142.177C297.426 142.431 290.762 140.091 285.537 135.609C280.412 130.876 277.156 124.388 276.384 117.368H292.768C294.711 125.071 298.455 128.922 303.998 128.922C305.308 128.947 306.61 128.691 307.818 128.169C309.025 127.647 310.113 126.872 311.009 125.893C311.947 124.904 312.683 123.734 313.173 122.451C313.663 121.168 313.898 119.798 313.863 118.42C313.923 116.767 313.647 115.119 313.055 113.58C312.462 112.041 311.565 110.643 310.419 109.476C309.25 108.318 307.865 107.414 306.346 106.818C304.826 106.222 303.205 105.946 301.58 106.008H298.656V92.3536H300.393C303.646 92.5195 306.852 91.5109 309.452 89.504C310.556 88.6083 311.439 87.4606 312.032 86.1529C312.624 84.8452 312.91 83.4137 312.865 81.973C312.919 79.2907 311.951 76.692 310.166 74.7267C309.343 73.7667 308.326 73.0008 307.185 72.482C306.045 71.9631 304.808 71.7037 303.559 71.7216C297.478 71.7216 293.961 75.5931 293.009 83.3362ZM363.771 60.1676H384.601L365.039 87.4642C367.454 86.9845 369.907 86.7296 372.368 86.7028C375.682 86.6743 378.966 87.3542 382.009 88.6991C385.052 90.0439 387.787 92.024 390.039 94.5126C392.431 96.9458 394.32 99.8459 395.595 103.041C396.87 106.236 397.505 109.66 397.461 113.111C397.557 117.021 396.825 120.906 395.315 124.5C393.805 128.093 391.552 131.31 388.712 133.929C382.655 139.515 374.712 142.473 366.562 142.177C362.788 142.304 359.028 141.653 355.504 140.263C351.981 138.873 348.767 136.773 346.053 134.086C343.379 131.416 341.279 128.205 339.886 124.659C338.492 121.112 337.836 117.307 337.96 113.487C338.038 107.11 339.412 100.82 341.993 95.0154C344.407 89.2153 347.401 83.6859 350.927 78.5155L363.771 60.1676ZM379.405 113.012C379.495 109.605 378.266 106.3 375.984 103.817C374.924 102.62 373.627 101.669 372.179 101.027C370.731 100.385 369.165 100.067 367.587 100.095C365.891 100.058 364.206 100.375 362.634 101.026C361.062 101.678 359.636 102.65 358.444 103.883C357.233 105.081 356.277 106.522 355.635 108.114C354.992 109.707 354.678 111.418 354.711 113.141C354.678 114.844 354.99 116.535 355.627 118.108C356.265 119.681 357.215 121.101 358.416 122.28C359.621 123.501 361.055 124.461 362.631 125.101C364.208 125.74 365.895 126.047 367.591 126.002C369.165 126.01 370.723 125.673 372.159 125.012C373.595 124.352 374.876 123.385 375.915 122.175C378.21 119.708 379.463 116.416 379.403 113.012H379.405ZM431.488 59.0265C435.824 58.8832 440.129 59.8122 444.039 61.7347C447.948 63.6571 451.347 66.5164 453.946 70.0696C459.528 77.433 462.32 87.2717 462.322 99.5857C462.322 113.975 459.219 124.648 453.014 131.606C450.381 134.837 447.093 137.444 443.378 139.247C439.663 141.051 435.61 142.007 431.498 142.051C427.135 142.163 422.808 141.211 418.876 139.274C414.943 137.338 411.517 134.472 408.88 130.913C403.111 123.487 400.227 113.722 400.227 101.619C400.227 88.7547 403.049 78.4401 408.695 70.6755C411.185 67.0042 414.523 64.0196 418.412 61.9873C422.302 59.9549 426.622 58.9378 430.989 59.0265H431.488ZM445.701 101.113C445.701 92.8996 444.418 86.4464 441.854 81.7528C439.289 77.0593 435.835 74.7106 431.492 74.7065C426.943 74.7065 423.365 77.0553 420.76 81.7528C418.154 86.4504 416.851 92.9884 416.851 101.367C416.559 107.716 417.929 114.029 420.821 119.654C423.469 124.224 426.943 126.509 431.243 126.509C435.627 126.509 439.131 124.224 441.755 119.654C444.379 115.085 445.694 108.903 445.699 101.111L445.701 101.113Z" fill="#191919"/>
<path d="M32.4328 66.8505C35.8464 66.8384 39.2222 67.582 42.3286 69.03C45.435 70.4781 48.1985 72.5965 50.4295 75.2398C55.406 80.7796 58.0793 88.0838 57.8832 95.6053C58.0945 103.164 55.4211 110.511 50.4295 116.088C48.1919 118.716 45.4247 120.816 42.318 122.246C39.2114 123.675 35.839 124.399 32.4328 124.368C25.5463 124.368 20.2574 122.153 16.5661 117.722V144.631H0.594727V68.3753H16.5681V73.4969C20.2594 69.066 25.5476 66.8505 32.4328 66.8505ZM20.0817 105.299C21.2961 106.494 22.7321 107.427 24.3048 108.045C25.8776 108.662 27.5553 108.951 29.239 108.894C30.9074 108.958 32.5708 108.671 34.1272 108.053C35.6836 107.435 37.1001 106.498 38.2896 105.299C39.5165 104.028 40.4717 102.51 41.0946 100.841C41.7174 99.1725 41.9944 97.3894 41.9079 95.6053C41.9942 93.821 41.7169 92.0378 41.0936 90.369C40.4704 88.7002 39.5149 87.1821 38.2876 85.9113C37.0981 84.7127 35.6816 83.7756 34.1252 83.1574C32.5689 82.5392 30.9054 82.253 29.237 82.3164C27.5533 82.2597 25.8756 82.5485 24.3029 83.1659C22.7301 83.7834 21.2942 84.7168 20.0798 85.9113C18.8824 87.199 17.9536 88.7224 17.3499 90.389C16.7462 92.0555 16.4802 93.8303 16.5681 95.6053C16.4805 97.3805 16.7468 99.1553 17.3508 100.822C17.9549 102.488 18.884 104.012 20.0817 105.299ZM79.6067 122.849H63.6353V68.3773H79.6087L79.6067 122.849ZM119.538 95.1812L138.601 122.849H120.286L110.383 108.468L100.479 122.849H82.165L101.224 95.1812L82.8026 68.3773H101.117L110.381 81.8863L119.645 68.3773H137.953L119.538 95.1812ZM189.499 102.153H151.698C153.473 107.237 157.734 109.779 164.479 109.779C166.374 109.88 168.268 109.563 170.032 108.849C171.796 108.134 173.389 107.039 174.703 105.639L187.484 113.155C182.302 120.637 174.564 124.378 164.27 124.378C160.332 124.555 156.399 123.923 152.704 122.52C149.009 121.116 145.625 118.97 142.754 116.207C140.118 113.513 138.05 110.295 136.677 106.752C135.303 103.209 134.653 99.4152 134.767 95.6053C134.674 91.8265 135.324 88.0671 136.678 84.5503C138.032 81.0334 140.064 77.8309 142.651 75.1328C145.319 72.3875 148.511 70.235 152.029 68.8102C155.547 67.3855 159.314 66.719 163.096 66.8525C166.698 66.7567 170.28 67.4453 173.603 68.8728C176.925 70.3004 179.914 72.4342 182.369 75.1328C184.949 77.8316 186.968 81.0369 188.304 84.5553C189.64 88.0738 190.267 91.8326 190.145 95.6053C190.156 97.8008 189.94 99.9915 189.501 102.141L189.499 102.153ZM151.376 89.9505H174.274C173.748 87.3515 172.308 85.0403 170.228 83.4541C168.148 81.8679 165.572 81.1168 162.987 81.343C156.81 81.3417 152.94 84.2108 151.376 89.9505ZM211.864 122.849H195.889V43.3184H211.862L211.864 122.849ZM260.209 79.2709L240.088 107.591H261.279V122.843H218.679V111.95L238.813 83.6231H219.75V68.3712H260.217L260.209 79.2709Z" fill="#191919"/>
<path d="M103.331 0.408203H88.9961V15.0744H103.331V0.408203Z" fill="#7AC943"/>
<path d="M92.5762 18.7402H78.2412V33.4064H92.5762V18.7402Z" fill="#FF3C3C"/>
<path d="M99.7463 45.6279H88.9961V56.6266H99.7463V45.6279Z" fill="#FF931E"/>
<path d="M80.6323 45.6289H59.1299V63.9606H80.6323V45.6289Z" fill="#1A78E2"/>
<path d="M338.647 127.05C320.036 127.05 303.441 124.099 290.654 118.517C277.395 112.729 268.997 104.38 266.374 94.3752C265.18 89.6449 265.09 84.6939 266.109 79.9211C267.263 74.5899 269.296 69.4983 272.12 64.865C275.82 58.7644 280.29 53.1896 285.415 48.2843C291.328 42.5733 297.783 37.4795 304.685 33.0788C320.855 22.8501 338.594 15.4819 357.157 11.2835C365.654 9.31552 374.247 7.80612 382.899 6.76166C390.976 5.78029 399.101 5.27768 407.234 5.25684C425.394 5.25684 441.279 7.99943 453.206 13.1877C458.794 15.4902 463.915 18.8349 468.308 23.0514C472.169 26.8017 474.959 31.5561 476.38 36.8049C477.985 43.192 477.792 49.9137 475.822 56.193C474.992 54.5613 473.83 53.1307 472.413 51.9986C470.997 50.8665 469.359 50.0594 467.611 49.6314C465.863 49.2034 464.045 49.1647 462.281 49.518C460.517 49.8713 458.848 50.6082 457.386 51.6791C458.448 47.036 458.388 42.1979 457.209 37.5844C454.969 29.0295 448.093 22.0336 437.325 17.3704C427.092 12.9273 413.44 10.5849 397.846 10.5849C383.241 10.7063 368.693 12.4593 354.46 15.8133C321.988 23.3241 293.164 41.4619 281.028 62.0112C275.809 70.8509 274.12 79.5697 276.116 87.2239C278.358 95.7889 285.563 102.934 296.953 107.888C307.928 112.662 322.187 115.187 338.188 115.187C353.365 115.102 368.466 113.014 383.12 108.973C406.946 102.441 427.659 91.3639 441.443 77.7822C445.626 73.7485 449.28 69.1769 452.314 64.1821C452.785 67.1905 454.291 69.928 456.56 71.9C458.83 73.872 461.715 74.9491 464.692 74.9368C465.097 74.9368 465.509 74.9165 465.914 74.8761C463.52 77.9627 460.926 80.8807 458.148 83.6107C449.598 91.8639 439.964 98.8572 429.526 104.388C417.144 111.033 404.067 116.223 390.544 119.858C381.845 122.243 373.004 124.05 364.077 125.268C355.648 126.433 347.153 127.029 338.647 127.05Z" fill="#1C78DB"/>
<path d="M293.011 83.3362H277.004C277.113 79.9713 277.875 76.6621 279.243 73.6003C280.612 70.5385 282.561 67.7849 284.977 65.4993C289.693 61.0534 295.906 58.6432 302.318 58.7721C309.158 58.5792 315.845 60.8581 321.205 65.2085C323.598 66.9897 325.549 69.3207 326.901 72.0138C328.253 74.707 328.969 77.6872 328.99 80.7148C328.99 87.3121 325.805 93.2746 319.434 98.6022C322.916 100.695 325.942 103.495 328.327 106.83C329.847 109.203 330.776 111.92 331.035 114.745V115.367L324.934 115.548L312.893 113.396L312.673 112.691C312.119 111.481 311.351 110.386 310.409 109.459C309.241 108.302 307.855 107.397 306.336 106.802C304.817 106.206 303.196 105.93 301.57 105.992H298.652V92.3435H300.389C303.642 92.5094 306.848 91.5008 309.448 89.4939C310.552 88.5982 311.435 87.4505 312.028 86.1428C312.621 84.8351 312.906 83.4036 312.861 81.9629C312.915 79.2832 311.949 76.6871 310.167 74.7227C309.343 73.7626 308.326 72.9968 307.186 72.4779C306.045 71.9591 304.808 71.6997 303.56 71.7176C297.476 71.7203 293.96 75.5931 293.011 83.3362ZM363.768 60.1676H384.601L365.043 87.4642C367.458 86.9845 369.912 86.7296 372.372 86.7028C375.687 86.6743 378.971 87.3542 382.013 88.6991C385.056 90.0439 387.791 92.024 390.043 94.5126C392.911 97.3545 395.03 100.892 396.204 104.796C395.756 106.327 391.508 107.04 385.41 108.716C384.398 108.993 383.122 109.548 381.462 109.928L379.654 110.722L379.135 110.009L372.305 111.624L368.616 112.319L359.243 113.745L354.581 114.7L343.45 115.989L337.988 115.787V115.088C337.972 114.825 337.954 114.167 337.954 113.499C338.032 107.118 339.406 100.824 341.989 95.0154C344.403 89.2153 347.397 83.6859 350.923 78.5155L363.768 60.1676ZM379.117 110.003C379.117 109.974 379.117 109.946 379.028 109.542C378.55 107.382 377.495 105.4 375.981 103.817C374.921 102.62 373.623 101.669 372.175 101.027C370.727 100.385 369.161 100.067 367.583 100.095C365.888 100.058 364.202 100.375 362.63 101.026C361.058 101.678 359.633 102.65 358.44 103.883C357.229 105.081 356.273 106.522 355.631 108.114C354.989 109.707 354.674 111.418 354.707 113.141C354.709 113.602 354.737 114.061 354.79 114.519C354.79 114.519 357.68 113.997 361.896 113.394C362.281 113.339 362.71 113.27 363.541 113.149C364.291 113.034 365.598 112.82 366.912 112.588L371.81 111.721L379.117 110.003ZM431.489 59.0265C435.078 58.9256 438.652 59.5529 442.004 60.8722C445.356 62.1914 448.419 64.1765 451.017 66.713L448.715 73.2444L440.33 79.3435L436.956 82.0598L432.858 85.3618L426.725 89.712L422.531 92.5394L418.561 95.0255L411.538 99.7756L400.239 103.296C400.239 103.296 400.219 102.306 400.219 101.617C400.219 88.7527 403.042 78.438 408.687 70.6734C411.178 67.0008 414.518 64.0156 418.41 61.9835C422.302 59.9514 426.625 58.9356 430.993 59.0265H431.489ZM439.943 78.8871C438.949 77.5653 437.667 76.499 436.199 75.7729C434.732 75.0468 433.119 74.681 431.489 74.7045C426.939 74.7045 423.362 77.0533 420.756 81.7508C418.602 86.0134 417.352 90.6931 417.086 95.484V95.6859L418.561 95.0154L420.592 93.7613L422.892 92.3112L424.639 91.0995L427.939 88.8375L432.858 85.3416L436.637 82.286L440.33 79.3193L439.943 78.8871Z" fill="#1C78DB"/>
<path d="M464.684 72.5177C470.292 72.5177 474.838 67.8665 474.838 62.129C474.838 56.3914 470.292 51.7402 464.684 51.7402C459.076 51.7402 454.53 56.3914 454.53 62.129C454.53 67.8665 459.076 72.5177 464.684 72.5177Z" fill="white"/>
<path d="M464.684 70.498C469.202 70.498 472.864 66.7511 472.864 62.1289C472.864 57.5068 469.202 53.7598 464.684 53.7598C460.166 53.7598 456.504 57.5068 456.504 62.1289C456.504 66.7511 460.166 70.498 464.684 70.498Z" stroke="#191919" stroke-width="5.8732"/>
</svg>
